# xmcd CD database file
#
# Track frame offsets:
#	150
#	11809
#	26269
#	39905
#	58941
#	72081
#	111542
#	139577
#	150729
#	164714
#	177638
#	196589
#	208483
#	222299
#	234072
#	259119
#	272667
#	308199
#	318196
#	332846
#	345775
#
# Disc length: 4796 seconds
#
# Revision: 4
# Processed by: cddbd v1.5.2PL0 Copyright (c) Steve Scherf et al.
# Submitted via: CDex 1.50
#
DISCID=3012ba15
DTITLE=Verschiedene - Battle of Trumpets CD02
DYEAR=2004
DGENRE=Jazz
TTITLE0=Sweet Georgia Brown (Harry James)
TTITLE1=Five O'Clock Drag (Cootie Williams)
TTITLE2=Boy Meets Horn (Rex Stewart)
TTITLE3=Hubba Hubba Hub (Jonah Jones)
TTITLE4=The Gasser (Roy Eldrige )
TTITLE5=Bugle Call Rag (Louis Armstrong)
TTITLE6=Echoes Of Harlem (Charly Shavers)
TTITLE7=Stardust (Roy Eldrige)
TTITLE8=Fiesta In Blue (Buck Clayton)
TTITLE9=Concerto For Trumpet (Harry James)
TTITLE10=Don't Worry 'Bout Me (Cat Anderson)
TTITLE11=Little Jazz (Roy Eldrige )
TTITLE12=A Night In Tunesia (Dizzy Gillespie)
TTITLE13=Move (Fats Navarro)
TTITLE14=Double Talk - Fats Navarro (Howard McGhee)
TTITLE15=Blue Room (Miles Davis )
TTITLE16=A Night In Tunesia (live) (Dizzy Gillespie)
TTITLE17=Summertime (Cat Anderson )
TTITLE18=Portrait Of A Count (Conte Candoli)
TTITLE19=Invention For Guitar And Trumpet (Conte Candoli)
TTITLE20=Boperation (Roger Hate)
EXTD=YEAR: 2004
EXTT0=
EXTT1=
EXTT2=
EXTT3=
EXTT4=
EXTT5=
EXTT6=
EXTT7=
EXTT8=
EXTT9=
EXTT10=
EXTT11=
EXTT12=
EXTT13=
EXTT14=
EXTT15=
EXTT16=
EXTT17=
EXTT18=
EXTT19=
EXTT20=
PLAYORDER=
